<svg width="24" height="24" viewBox="0 0 24 24" fill="none" xmlns="http://www.w3.org/2000/svg">
<path fill-rule="evenodd" clip-rule="evenodd" d="M12 22C17.5228 22 22 17.5228 22 12C22 6.47715 17.5228 2 12 2C6.47715 2 2 6.47715 2 12C2 17.5228 6.47715 22 12 22ZM17.3744 9.94593C17.7587 9.54933 17.7488 8.91624 17.3522 8.53189C16.9556 8.14754 16.3225 8.15747 15.9381 8.55407L10.6728 13.9872L7.69993 11.3137C7.28928 10.9444 6.657 10.978 6.2877 11.3886C5.9184 11.7993 5.95192 12.4315 6.36257 12.8008L10.0518 16.1186C10.4516 16.4782 11.0643 16.4571 11.4385 16.0709L17.3744 9.94593Z" fill="#1665FF"/>
</svg>
