<svg width="24" height="24" viewBox="0 0 24 24" fill="none" xmlns="http://www.w3.org/2000/svg">
<path fill-rule="evenodd" clip-rule="evenodd" d="M12 22C17.5228 22 22 17.5228 22 12C22 6.47715 17.5228 2 12 2C6.47715 2 2 6.47715 2 12C2 17.5228 6.47715 22 12 22ZM16.3241 7.65625C15.9336 7.26573 15.3005 7.26573 14.9099 7.65625L12 10.5662L9.09007 7.65625C8.69955 7.26573 8.06638 7.26573 7.67586 7.65625C7.28534 8.04677 7.28534 8.67994 7.67586 9.07046L10.5858 11.9804L7.63664 14.9295C7.24612 15.3201 7.24612 15.9532 7.63664 16.3438C8.02717 16.7343 8.66033 16.7343 9.05086 16.3438L12 13.3946L14.9491 16.3438C15.3397 16.7343 15.9728 16.7343 16.3634 16.3438C16.7539 15.9532 16.7539 15.3201 16.3634 14.9295L13.4142 11.9804L16.3241 9.07046C16.7147 8.67994 16.7147 8.04677 16.3241 7.65625Z" fill="#F34E4E"/>
</svg>
