<svg width="24" height="24" viewBox="0 0 24 24" fill="none" xmlns="http://www.w3.org/2000/svg">
<path fill-rule="evenodd" clip-rule="evenodd" d="M22 12C22 17.5228 17.5228 22 12 22C6.47715 22 2 17.5228 2 12C2 6.47715 6.47715 2 12 2C17.5228 2 22 6.47715 22 12ZM12 5.45312C12.5523 5.45312 13 5.90084 13 6.45312V13.4531C13 14.0054 12.5523 14.4531 12 14.4531C11.4477 14.4531 11 14.0054 11 13.4531V6.45312C11 5.90084 11.4477 5.45312 12 5.45312ZM12 18.5469C12.6645 18.5469 13.2031 18.0082 13.2031 17.3438C13.2031 16.6793 12.6645 16.1406 12 16.1406C11.3355 16.1406 10.7969 16.6793 10.7969 17.3438C10.7969 18.0082 11.3355 18.5469 12 18.5469Z" fill="#FB8441"/>
</svg>
